<svg id="Layer_1" data-name="Layer 1" xmlns="http://www.w3.org/2000/svg" viewBox="0 0 72 72"><defs><style>.cls-1{fill:#231f20;}</style></defs><title>LIKEtoKNOW.it_icon</title><polygon class="cls-1" points="48.64 30.18 42.97 25.09 36 31.36 29.03 25.09 23.36 30.18 23.36 37.63 36 48.99 36 48.99 36 48.99 36 48.99 36 48.99 48.64 37.63 48.64 30.18"/><path class="cls-1" d="M49,51.61A20.33,20.33,0,0,1,34.23,56.2l-7.9,7.93a29.87,29.87,0,0,0,25.2-2.76Z"/><path class="cls-1" d="M43.09,17a20.66,20.66,0,0,1,3.45,1.67,20.24,20.24,0,0,1,7.74,8.55l10.83,2.66a29.65,29.65,0,0,0-14.93-20Z"/><path class="cls-1" d="M55.9,32.07a20.28,20.28,0,0,1-2.57,14.47c-.29.46-.58.91-.89,1.34l2.85,10.78c.61-.53,1.21-1.08,1.79-1.66A29.67,29.67,0,0,0,65.7,34.49Z"/><path class="cls-1" d="M23,20.45a20.31,20.31,0,0,1,15.18-4.62L46,8a29.9,29.9,0,0,0-25.69,2.79Z"/><path class="cls-1" d="M29.21,55.11A20.37,20.37,0,0,1,17.58,44.49L6.8,41.61A29.54,29.54,0,0,0,15,57.08a29.24,29.24,0,0,0,7.06,5.2Z"/><path class="cls-1" d="M16.05,39.6a20.11,20.11,0,0,1,2.63-14.14c.27-.44.55-.87.85-1.29l-3-10.67c-.56.47-1.1,1-1.62,1.49A29.66,29.66,0,0,0,6.28,37Z"/></svg>