<?xml version="1.0" encoding="UTF-8"?>
<svg width="658px" height="149px" viewBox="0 0 658 149" version="1.1" xmlns="http://www.w3.org/2000/svg" xmlns:xlink="http://www.w3.org/1999/xlink">
    <!-- Generator: Sketch 50.1 (55044) - http://www.bohemiancoding.com/sketch -->
    <title>rewardStyle_Logo-01</title>
    <desc>Created with Sketch.</desc>
    <defs></defs>
    <g id="Page-1" stroke="none" stroke-width="1" fill="none" fill-rule="evenodd">
        <g id="rewardStyle_Logo-01" fill="#000000" fill-rule="nonzero">
            <path d="M0.06,42.23 L7,42.23 L7,49.93 C8.70839008,47.25603 10.9274019,44.9452673 13.53,43.13 C15.6398536,41.684752 18.1327033,40.9013845 20.69,40.88 C22.8101929,40.953584 24.8760515,41.5698985 26.69,42.67 L23.15,48.38 C22.0317589,47.8424264 20.8187781,47.5298375 19.58,47.46 C17.1156637,47.5287724 14.7671316,48.5210093 13,50.24 C10.9266667,52.08 9.34,54.9566667 8.24,58.87 C7.41333333,61.87 7,67.9333333 7,77.06 L7,94.86 L0.06,94.86 L0.06,42.23 Z" id="Shape"></path>
            <path d="M77.24,77.4 L82.95,80.4 C81.3292453,83.7266629 79.1319595,86.7398899 76.46,89.3 C74.0549924,91.5307085 71.2441318,93.2790095 68.18,94.45 C64.8485022,95.675634 61.3193598,96.2756899 57.77,96.22 C49.1833333,96.22 42.47,93.4066667 37.63,87.78 C32.9347334,82.5320767 30.3485303,75.7317161 30.37,68.69 C30.2994707,62.2134239 32.4684664,55.9113257 36.51,50.85 C41.71,44.1833333 48.6666667,40.85 57.38,40.85 C66.3466667,40.85 73.5133333,44.2533333 78.88,51.06 C82.6933333,55.86 84.63,61.86 84.69,69.06 L37.33,69.06 C37.4633333,75.18 39.4166667,80.18 43.19,84.06 C46.8160961,87.909132 51.9030498,90.0420191 57.19,89.93 C59.8594123,89.9347143 62.5080242,89.4605383 65.01,88.53 C67.3715619,87.697631 69.5609315,86.4402685 71.47,84.82 C73.7538252,82.6493604 75.6988345,80.1481526 77.24,77.4 Z M77.24,63.23 C76.5550848,60.0949723 75.2083686,57.1424248 73.29,54.57 C71.4446737,52.3199433 69.0989362,50.5323886 66.44,49.35 C63.6260577,48.0223459 60.5514012,47.3390889 57.44,47.35 C52.5251037,47.2585912 47.7607267,49.047021 44.12,52.35 C41.41,54.77 39.35,58.35 37.97,63.24 L77.24,63.23 Z" id="Shape"></path>
            <polygon id="Shape" points="87.74 42.23 94.74 42.23 110.87 80.45 127.67 42.23 128.89 42.23 145.8 80.45 162.2 42.23 169.25 42.23 146.38 94.86 145.12 94.86 128.3 57.18 111.48 94.86 110.22 94.86"></polygon>
            <path d="M227,42.23 L227,94.86 L220.32,94.86 L220.32,85.86 C217.731564,89.1109039 214.474696,91.7675531 210.77,93.65 C200.426442,98.5938855 188.081104,96.3800165 180.1,88.15 C174.898398,82.925291 172.043327,75.811074 172.19,68.44 C172.081493,61.137789 174.973276,54.110758 180.19,49 C185.186594,43.7459514 192.150147,40.8169818 199.4,40.92 C203.477359,40.86245 207.506091,41.8103871 211.13,43.68 C214.807388,45.6743848 217.962749,48.5077 220.34,51.95 L220.34,42.23 L227,42.23 Z M200,47.41 C192.514881,47.372925 185.608784,51.4321759 182,57.99 C178.21255,64.5706186 178.21255,72.6693814 182,79.25 C183.79423,82.5258984 186.440996,85.2555917 189.66,87.15 C192.758415,89.0125038 196.304881,89.9976332 199.92,90 C203.613757,89.9981578 207.243179,89.0330692 210.45,87.2 C213.662128,85.4351108 216.315697,82.8057911 218.11,79.61 C219.92526,76.3143574 220.849031,72.6020398 220.79,68.84 C220.943306,63.1469899 218.777827,57.6358461 214.79,53.57 C210.939414,49.5371998 205.574855,47.3028738 200,47.41 Z" id="Shape"></path>
            <path d="M238.27,42.23 L245.18,42.23 L245.18,49.93 C246.891268,47.2582964 249.109783,44.9480508 251.71,43.13 C253.820656,41.686403 256.31299,40.9031976 258.87,40.88 C260.990193,40.953584 263.056052,41.5698985 264.87,42.67 L261.34,48.38 C260.218681,47.8411591 259.002179,47.5285384 257.76,47.46 C255.312665,47.5392338 252.983435,48.5308506 251.23,50.24 C249.13,52.1 247.533333,54.9766667 246.44,58.87 C245.6,61.87 245.18,67.9333333 245.18,77.06 L245.18,94.86 L238.27,94.86 L238.27,42.23 Z" id="Shape"></path>
            <path d="M322.91,21.92 L322.91,94.86 L316.24,94.86 L316.24,85.86 C313.648239,89.1076164 310.392144,91.7636356 306.69,93.65 C296.346442,98.5938855 284.001104,96.3800165 276.02,88.15 C270.814464,82.9278829 267.958692,75.8119208 268.11,68.44 C268.001493,61.137789 270.893276,54.110758 276.11,49 C281.104221,43.7485243 288.063608,40.8197822 295.31,40.92 C299.370509,40.8566653 303.384533,41.7906383 307,43.64 C310.678632,45.6364966 313.836802,48.4692584 316.22,51.91 L316.22,21.91 L322.91,21.92 Z M295.85,47.41 C288.344874,47.3565314 281.414705,51.4224867 277.8,58 C274.020734,64.582803 274.020734,72.677197 277.8,79.26 C279.593095,82.5334213 282.235911,85.2626038 285.45,87.16 C288.576817,89.0319591 292.155686,90.013987 295.8,90 C299.493757,89.9981578 303.123179,89.0330692 306.33,87.2 C309.548511,85.4311764 312.205955,82.794521 314,79.59 C315.81526,76.2943574 316.739031,72.5820398 316.68,68.82 C316.840269,63.12577 314.673758,57.6119993 310.68,53.55 C306.815032,49.5162724 301.435182,47.2888766 295.85,47.41 Z" id="Shape"></path>
            <path d="M343.41,75.3 C351.41,96.45 367.29,108.47 382.35,108.47 C395.49,108.47 402.7,99.02 402.7,88.76 C402.710538,83.3106501 400.581091,78.075011 396.77,74.18 C384.92,62.48 364.89,65.05 351.43,51.59 C345.519037,45.6388231 342.271949,37.5463585 342.43,29.16 C342.43,13.29 353.49,0.16 369.68,0.16 C381.53,0.16 390.19,6.57 394.99,6.57 C399.006163,6.37984658 402.614231,4.05710508 404.45,0.48 L406.04,0.48 L407.65,30.93 L406.21,30.93 C404.12,27.4 400.6,20.67 394.35,14.42 C387,7 378.35,2.72 370,2.72 C362.79,2.72 351.73,6.24 351.73,20.02 C351.738429,24.8660779 353.627817,29.519637 357,33 C369,45 391.6,42.13 406.67,57.2 C411.67,62.2 414.52,69.69 414.52,78.35 C414.52,99.02 401.52,111.2 382.63,111.2 C370.13,111.2 363.25,105.11 355.55,105.11 C348.98,105.11 345.46,109.11 342.74,111.36 L341.29,111.36 L341.29,75.3 L343.41,75.3 Z" id="Shape"></path>
            <path d="M416.57,41.65 L430.51,41.65 L430.51,16.49 L443.17,11.49 L443.17,41.65 L466.57,41.65 L466.57,46.3 L443.17,46.3 L443.17,88.92 C442.85,99.34 447.02,106.39 454.07,106.39 C463.52,106.39 468.65,95.97 468.49,86.52 L471.37,86.52 L471.37,88.76 C471.37,101.42 462.56,110.88 450.06,110.88 C443.01,110.88 430.06,106.71 430.51,89.57 L430.51,46.14 L416.57,46.14 L416.57,41.65 Z" id="Shape"></path>
            <path d="M472.54,41.65 L508.75,41.65 L508.75,44.38 L503,44.38 C500,44.38 497.87,44.86 497.87,47.1 C497.952123,48.1051469 498.223557,49.0857028 498.67,49.99 L520.15,96.77 L535.37,60.24 C536.357863,58.0343845 536.901547,55.6557664 536.97,53.24 C536.97,47.47 532.97,44.43 528.48,44.43 L525.27,44.43 L525.27,41.65 L556,41.65 L556,44.22 C546.38,44.22 542.7,50.3 538.05,61.52 L511.45,125.14 C505.36,139.56 500.88,148.21 487.58,148.21 C481.01,148.21 475.24,144.84 475.24,137.63 C475.241993,132.977053 478.920432,129.157306 483.57,128.98 C488.86,128.98 492.23,132.83 492.23,137.16 C492.128009,140.406467 490.529298,143.422974 487.9,145.33 C495.75,146.61 502.32,139.72 506.32,129.94 L513.22,113.28 L483.91,49.67 C481.83,45.34 480.23,44.38 475.74,44.38 L472.54,44.38 L472.54,41.65 Z" id="Shape"></path>
            <path d="M560.37,106.71 C564.06,106.71 565.98,105.43 565.98,100.78 L565.98,15.21 C565.98,8 563.9,4.48 556.37,4.48 L553.48,4.48 L553.48,1.75 C561.887752,1.76755341 570.289153,1.28671012 578.64,0.31 L578.64,100.78 C578.64,105.59 580.56,106.71 584.25,106.71 L590.5,106.71 L590.5,109.44 L554.28,109.44 L554.28,106.71 L560.37,106.71 Z" id="Shape"></path>
            <path d="M657.5,95.17 C649.33,106.39 640.19,111.17 628.5,111.17 C608.8,111.17 596.62,93.54 596.62,76.4 C596.62,57.17 610.56,40.82 629.95,40.82 C644.53,40.82 657.03,53 657.95,69.5 L611.35,69.5 L611.35,78.5 C611.35,98.21 620.64,107.34 632.5,107.34 C641.8,107.34 649.33,102.34 655.25,93.72 L657.5,95.17 Z M642.28,67.17 C643.677921,64.1506856 644.440362,60.8762744 644.52,57.55 C644.52,48.1 636.83,43.46 630.26,43.46 C620.48,43.46 611.83,50.83 611.35,67.17 L642.28,67.17 Z" id="Shape"></path>
        </g>
    </g>
</svg>