<?xml version="1.0" encoding="utf-8"?>
<!-- Generator: Adobe Illustrator 22.1.0, SVG Export Plug-In . SVG Version: 6.00 Build 0)  -->
<svg version="1.1" id="Layer_1" xmlns="http://www.w3.org/2000/svg" xmlns:xlink="http://www.w3.org/1999/xlink" x="0px" y="0px"
	 viewBox="0 0 713.1 170.9" style="enable-background:new 0 0 713.1 170.9;" xml:space="preserve">
<style type="text/css">
	.st0{fill:#FFFFFF;}
</style>
<title>rewardStyle_Logo</title>
<path class="st0" d="M21.1,55.2H28v7.7c1.7-2.7,3.9-5,6.5-6.8c2.1-1.4,4.6-2.2,7.2-2.2c2.1,0.1,4.2,0.7,6,1.8l-3.5,5.7
	c-1.1-0.5-2.3-0.9-3.6-0.9c-2.5,0.1-4.8,1.1-6.6,2.8c-2.1,1.8-3.7,4.7-4.8,8.6c-0.8,3-1.2,9.1-1.2,18.2v17.8h-6.9V55.2z"/>
<path class="st0" d="M98.2,90.4l5.7,3c-1.6,3.3-3.8,6.3-6.5,8.9c-2.4,2.2-5.2,4-8.3,5.2c-3.3,1.2-6.9,1.8-10.4,1.8
	c-8.6,0-15.3-2.8-20.1-8.4c-4.7-5.2-7.3-12-7.3-19.1c-0.1-6.5,2.1-12.8,6.1-17.8c5.2-6.7,12.2-10,20.9-10c9,0,16.1,3.4,21.5,10.2
	c3.8,4.8,5.8,10.8,5.8,18H58.3c0.1,6.1,2.1,11.1,5.9,15c3.6,3.8,8.7,6,14,5.9c2.7,0,5.3-0.5,7.8-1.4c2.4-0.8,4.6-2.1,6.5-3.7
	C94.8,95.6,96.7,93.1,98.2,90.4z M98.2,76.2c-0.7-3.1-2-6.1-3.9-8.7c-1.8-2.3-4.2-4-6.8-5.2c-2.8-1.3-5.9-2-9-2
	c-4.9-0.1-9.7,1.7-13.3,5c-2.7,2.4-4.8,6-6.2,10.9L98.2,76.2z"/>
<path class="st0" d="M108.7,55.2h7l16.1,38.2l16.8-38.2h1.2l16.9,38.2l16.4-38.2h7.1l-22.9,52.6h-1.3l-16.8-37.7l-16.8,37.7h-1.3
	L108.7,55.2z"/>
<path class="st0" d="M248,55.2v52.6h-6.7v-9c-2.6,3.3-5.8,5.9-9.6,7.8c-10.3,4.9-22.7,2.7-30.7-5.5c-5.2-5.2-8.1-12.3-7.9-19.7
	c-0.1-7.3,2.8-14.3,8-19.4c5-5.3,12-8.2,19.2-8.1c4.1-0.1,8.1,0.9,11.7,2.8c3.7,2,6.8,4.8,9.2,8.3v-9.7H248z M221,60.4
	c-7.5,0-14.4,4-18,10.6c-3.8,6.6-3.8,14.7,0,21.3c1.8,3.3,4.4,6,7.7,7.9c3.1,1.9,6.6,2.8,10.3,2.8c3.7,0,7.3-1,10.5-2.8
	c3.2-1.8,5.9-4.4,7.7-7.6c1.8-3.3,2.7-7,2.7-10.8c0.2-5.7-2-11.2-6-15.3C231.9,62.5,226.6,60.3,221,60.4z"/>
<path class="st0" d="M259.3,55.2h6.9v7.7c1.7-2.7,3.9-5,6.5-6.8c2.1-1.4,4.6-2.2,7.2-2.2c2.1,0.1,4.2,0.7,6,1.8l-3.5,5.7
	c-1.1-0.5-2.3-0.9-3.6-0.9c-2.4,0.1-4.8,1.1-6.5,2.8c-2.1,1.9-3.7,4.7-4.8,8.6c-0.8,3-1.3,9.1-1.3,18.2v17.8h-6.9V55.2z"/>
<path class="st0" d="M343.9,34.9v72.9h-6.7v-9c-2.6,3.2-5.8,5.9-9.5,7.8c-10.3,4.9-22.7,2.7-30.7-5.5c-5.2-5.2-8.1-12.3-7.9-19.7
	c-0.1-7.3,2.8-14.3,8-19.4c5-5.3,12-8.2,19.2-8.1c4.1-0.1,8.1,0.9,11.7,2.7c3.7,2,6.8,4.8,9.2,8.3v-30L343.9,34.9z M316.9,60.4
	c-7.5-0.1-14.4,4-18.1,10.6c-3.8,6.6-3.8,14.7,0,21.3c1.8,3.3,4.4,6,7.6,7.9c3.1,1.9,6.7,2.9,10.4,2.8c3.7,0,7.3-1,10.5-2.8
	c3.2-1.8,5.9-4.4,7.7-7.6c1.8-3.3,2.7-7,2.7-10.8c0.2-5.7-2-11.2-6-15.3C327.8,62.5,322.4,60.3,316.9,60.4z"/>
<path class="st0" d="M364.4,88.3c8,21.2,23.9,33.2,38.9,33.2c13.1,0,20.4-9.4,20.4-19.7c0-5.4-2.1-10.7-5.9-14.6
	c-11.9-11.7-31.9-9.1-45.3-22.6c-5.9-6-9.2-14-9-22.4c0-15.9,11.1-29,27.2-29c11.9,0,20.5,6.4,25.3,6.4c4-0.2,7.6-2.5,9.5-6.1h1.6
	l1.6,30.5h-1.4c-2.1-3.5-5.6-10.3-11.9-16.5c-7.4-7.4-16-11.7-24.4-11.7c-7.2,0-18.3,3.5-18.3,17.3c0,4.8,1.9,9.5,5.3,13
	c12,12,34.6,9.1,49.7,24.2c5,5,7.9,12.5,7.9,21.2c0,20.7-13,32.8-31.9,32.8c-12.5,0-19.4-6.1-27.1-6.1c-6.6,0-10.1,4-12.8,6.2h-1.5
	V88.3H364.4z"/>
<path class="st0" d="M437.6,54.7h13.9V29.5l12.7-5v30.2h23.4v4.6h-23.4v42.6c-0.3,10.4,3.9,17.5,10.9,17.5
	c9.5,0,14.6-10.4,14.4-19.9h2.9v2.2c0,12.7-8.8,22.1-21.3,22.1c-7,0-20-4.2-19.5-21.3V59.1h-13.9V54.7z"/>
<path class="st0" d="M493.5,54.7h36.2v2.7H524c-3,0-5.1,0.5-5.1,2.7c0.1,1,0.4,2,0.8,2.9l21.5,46.8l15.2-36.5c1-2.2,1.5-4.6,1.6-7
	c0-5.8-4-8.8-8.5-8.8h-3.2v-2.8H577v2.6c-9.6,0-13.3,6.1-18,17.3l-26.6,63.6c-6.1,14.4-10.6,23.1-23.9,23.1
	c-6.6,0-12.3-3.4-12.3-10.6c0-4.7,3.7-8.5,8.3-8.6c5.3,0,8.7,3.9,8.7,8.2c-0.1,3.2-1.7,6.3-4.3,8.2c7.9,1.3,14.4-5.6,18.4-15.4
	l6.9-16.7l-29.3-63.6c-2.1-4.3-3.7-5.3-8.2-5.3h-3.2L493.5,54.7z"/>
<path class="st0" d="M581.4,119.7c3.7,0,5.6-1.3,5.6-5.9V28.2c0-7.2-2.1-10.7-9.6-10.7h-2.9v-2.7c8.4,0,16.8-0.5,25.2-1.4v100.5
	c0,4.8,1.9,5.9,5.6,5.9h6.2v2.7h-36.2v-2.7H581.4z"/>
<path class="st0" d="M678.5,108.2c-8.2,11.2-17.3,16-29,16c-19.7,0-31.9-17.6-31.9-34.8c0-19.2,13.9-35.6,33.3-35.6
	c14.6,0,27.1,12.2,28,28.7h-46.6v9c0,19.7,9.3,28.8,21.2,28.8c9.3,0,16.8-5,22.8-13.6L678.5,108.2z M663.3,80.2
	c1.4-3,2.2-6.3,2.2-9.6c0-9.5-7.7-14.1-14.3-14.1c-9.8,0-18.4,7.4-18.9,23.7H663.3z"/>
</svg>
